<mxfile host="app.diagrams.net" modified="2024-01-31T16:11:07.345Z" agent="Mozilla/5.0 (Windows NT 10.0; Win64; x64) AppleWebKit/537.36 (KHTML, like Gecko) Chrome/121.0.0.0 Safari/537.36" etag="l3crUNDuTQiGi_0aiSFN" version="23.0.2" type="github">
  <diagram id="C5RBs43oDa-KdzZeNtuy" name="Page-1">
    <mxGraphModel dx="3053" dy="2764" grid="1" gridSize="10" guides="1" tooltips="1" connect="1" arrows="1" fold="1" page="1" pageScale="1" pageWidth="827" pageHeight="1169" math="0" shadow="0">
      <root>
        <mxCell id="WIyWlLk6GJQsqaUBKTNV-0" />
        <mxCell id="WIyWlLk6GJQsqaUBKTNV-1" parent="WIyWlLk6GJQsqaUBKTNV-0" />
        <mxCell id="yTECt2yy7o1h2HZ25cIH-2" value="" style="edgeStyle=orthogonalEdgeStyle;rounded=0;orthogonalLoop=1;jettySize=auto;html=1;" parent="WIyWlLk6GJQsqaUBKTNV-1" source="yTECt2yy7o1h2HZ25cIH-0" target="yTECt2yy7o1h2HZ25cIH-1" edge="1">
          <mxGeometry relative="1" as="geometry" />
        </mxCell>
        <mxCell id="yTECt2yy7o1h2HZ25cIH-0" value="Start :&amp;nbsp; import random" style="strokeWidth=2;html=1;shape=mxgraph.flowchart.terminator;whiteSpace=wrap;" parent="WIyWlLk6GJQsqaUBKTNV-1" vertex="1">
          <mxGeometry x="996" y="-350" width="150" height="60" as="geometry" />
        </mxCell>
        <mxCell id="yTECt2yy7o1h2HZ25cIH-4" value="" style="edgeStyle=orthogonalEdgeStyle;rounded=0;orthogonalLoop=1;jettySize=auto;html=1;" parent="WIyWlLk6GJQsqaUBKTNV-1" source="yTECt2yy7o1h2HZ25cIH-1" target="yTECt2yy7o1h2HZ25cIH-3" edge="1">
          <mxGeometry relative="1" as="geometry" />
        </mxCell>
        <mxCell id="yTECt2yy7o1h2HZ25cIH-1" value="&lt;div&gt;print(&quot;\tWelcome to hangman&quot;)&lt;/div&gt;&lt;div&gt;print(&quot;-------------------------------------&quot;)&lt;/div&gt;&lt;div&gt;&lt;br&gt;&lt;/div&gt;" style="whiteSpace=wrap;html=1;strokeWidth=2;align=center;" parent="WIyWlLk6GJQsqaUBKTNV-1" vertex="1">
          <mxGeometry x="947" y="-210" width="250" height="60" as="geometry" />
        </mxCell>
        <mxCell id="yTECt2yy7o1h2HZ25cIH-6" value="" style="edgeStyle=orthogonalEdgeStyle;rounded=0;orthogonalLoop=1;jettySize=auto;html=1;" parent="WIyWlLk6GJQsqaUBKTNV-1" source="yTECt2yy7o1h2HZ25cIH-3" target="yTECt2yy7o1h2HZ25cIH-5" edge="1">
          <mxGeometry relative="1" as="geometry" />
        </mxCell>
        <mxCell id="yTECt2yy7o1h2HZ25cIH-3" value="รับของมูลจากตัวแปร : wordDictionary = [&quot;sunflower&quot;,&quot;diamond&quot;,&lt;br&gt;&quot;memes&quot;,&quot;dog&quot;,&quot;goat&quot;,&quot;horse&quot;,&quot;pig&quot;,&quot;sheep&quot;,&quot;bat&quot;]" style="shape=parallelogram;perimeter=parallelogramPerimeter;whiteSpace=wrap;html=1;fixedSize=1;strokeWidth=2;" parent="WIyWlLk6GJQsqaUBKTNV-1" vertex="1">
          <mxGeometry x="876" y="-50" width="390" height="60" as="geometry" />
        </mxCell>
        <mxCell id="yTECt2yy7o1h2HZ25cIH-8" value="" style="edgeStyle=orthogonalEdgeStyle;rounded=0;orthogonalLoop=1;jettySize=auto;html=1;" parent="WIyWlLk6GJQsqaUBKTNV-1" source="yTECt2yy7o1h2HZ25cIH-5" target="yTECt2yy7o1h2HZ25cIH-7" edge="1">
          <mxGeometry relative="1" as="geometry" />
        </mxCell>
        <mxCell id="yTECt2yy7o1h2HZ25cIH-5" value="random คำจาก&amp;nbsp; wordDictionary" style="whiteSpace=wrap;html=1;strokeWidth=2;" parent="WIyWlLk6GJQsqaUBKTNV-1" vertex="1">
          <mxGeometry x="1011" y="90" width="120" height="60" as="geometry" />
        </mxCell>
        <mxCell id="2oVvr5gUgx5wugrZln5X-3" value="" style="edgeStyle=orthogonalEdgeStyle;rounded=0;orthogonalLoop=1;jettySize=auto;html=1;" edge="1" parent="WIyWlLk6GJQsqaUBKTNV-1" source="yTECt2yy7o1h2HZ25cIH-7" target="2oVvr5gUgx5wugrZln5X-2">
          <mxGeometry relative="1" as="geometry" />
        </mxCell>
        <mxCell id="yTECt2yy7o1h2HZ25cIH-7" value="loop&amp;nbsp; &quot;_&quot; ตามจำนวนคำที่โปรแกรมสุ่มมา แหละมีเว้นวรรคไม่เริ่มบรรทัดใหม่" style="whiteSpace=wrap;html=1;strokeWidth=2;" parent="WIyWlLk6GJQsqaUBKTNV-1" vertex="1">
          <mxGeometry x="956" y="225" width="230" height="60" as="geometry" />
        </mxCell>
        <mxCell id="yTECt2yy7o1h2HZ25cIH-15" value="" style="edgeStyle=orthogonalEdgeStyle;rounded=0;orthogonalLoop=1;jettySize=auto;html=1;" parent="WIyWlLk6GJQsqaUBKTNV-1" source="yTECt2yy7o1h2HZ25cIH-9" target="yTECt2yy7o1h2HZ25cIH-14" edge="1">
          <mxGeometry relative="1" as="geometry" />
        </mxCell>
        <mxCell id="yTECt2yy7o1h2HZ25cIH-9" value="funtion :&amp;nbsp;print_hangman" style="whiteSpace=wrap;html=1;strokeWidth=2;" parent="WIyWlLk6GJQsqaUBKTNV-1" vertex="1">
          <mxGeometry x="976" y="830" width="190" height="60" as="geometry" />
        </mxCell>
        <mxCell id="yTECt2yy7o1h2HZ25cIH-28" style="edgeStyle=orthogonalEdgeStyle;rounded=0;orthogonalLoop=1;jettySize=auto;html=1;" parent="WIyWlLk6GJQsqaUBKTNV-1" source="yTECt2yy7o1h2HZ25cIH-14" target="yTECt2yy7o1h2HZ25cIH-24" edge="1">
          <mxGeometry relative="1" as="geometry" />
        </mxCell>
        <mxCell id="yTECt2yy7o1h2HZ25cIH-31" value="yes" style="edgeLabel;html=1;align=center;verticalAlign=middle;resizable=0;points=[];" parent="yTECt2yy7o1h2HZ25cIH-28" vertex="1" connectable="0">
          <mxGeometry x="-0.0236" y="-1" relative="1" as="geometry">
            <mxPoint as="offset" />
          </mxGeometry>
        </mxCell>
        <mxCell id="yTECt2yy7o1h2HZ25cIH-33" value="" style="edgeStyle=orthogonalEdgeStyle;rounded=0;orthogonalLoop=1;jettySize=auto;html=1;" parent="WIyWlLk6GJQsqaUBKTNV-1" source="yTECt2yy7o1h2HZ25cIH-14" target="yTECt2yy7o1h2HZ25cIH-32" edge="1">
          <mxGeometry relative="1" as="geometry" />
        </mxCell>
        <mxCell id="yTECt2yy7o1h2HZ25cIH-34" value="No" style="edgeLabel;html=1;align=center;verticalAlign=middle;resizable=0;points=[];" parent="yTECt2yy7o1h2HZ25cIH-33" vertex="1" connectable="0">
          <mxGeometry x="-0.2365" relative="1" as="geometry">
            <mxPoint as="offset" />
          </mxGeometry>
        </mxCell>
        <mxCell id="yTECt2yy7o1h2HZ25cIH-14" value="คำผิด = 0" style="rhombus;whiteSpace=wrap;html=1;strokeWidth=2;" parent="WIyWlLk6GJQsqaUBKTNV-1" vertex="1">
          <mxGeometry x="1032" y="940" width="80" height="80" as="geometry" />
        </mxCell>
        <mxCell id="yTECt2yy7o1h2HZ25cIH-74" style="edgeStyle=orthogonalEdgeStyle;rounded=0;orthogonalLoop=1;jettySize=auto;html=1;entryX=-0.078;entryY=0.481;entryDx=0;entryDy=0;entryPerimeter=0;" parent="WIyWlLk6GJQsqaUBKTNV-1" source="yTECt2yy7o1h2HZ25cIH-24" target="yTECt2yy7o1h2HZ25cIH-68" edge="1">
          <mxGeometry relative="1" as="geometry">
            <mxPoint x="1107" y="1290" as="targetPoint" />
            <Array as="points">
              <mxPoint x="1072" y="1290" />
            </Array>
          </mxGeometry>
        </mxCell>
        <mxCell id="yTECt2yy7o1h2HZ25cIH-24" value="&lt;div&gt;print(&quot;\n+---+&quot;)&lt;/div&gt;&lt;div&gt;&amp;nbsp; &amp;nbsp; print(&quot;&amp;nbsp; &amp;nbsp; |&quot;)&lt;/div&gt;&lt;div&gt;&amp;nbsp; &amp;nbsp; print(&quot;&amp;nbsp; &amp;nbsp; |&quot;)&lt;/div&gt;&lt;div&gt;&amp;nbsp; &amp;nbsp; print(&quot;&amp;nbsp; &amp;nbsp; |&quot;)&lt;/div&gt;&lt;div&gt;&amp;nbsp; &amp;nbsp; print(&quot;&amp;nbsp; &amp;nbsp;===&quot;)&lt;/div&gt;" style="whiteSpace=wrap;html=1;sketch=0;strokeWidth=2;" parent="WIyWlLk6GJQsqaUBKTNV-1" vertex="1">
          <mxGeometry x="1012" y="1070" width="120" height="90" as="geometry" />
        </mxCell>
        <mxCell id="yTECt2yy7o1h2HZ25cIH-36" value="" style="edgeStyle=orthogonalEdgeStyle;rounded=0;orthogonalLoop=1;jettySize=auto;html=1;" parent="WIyWlLk6GJQsqaUBKTNV-1" source="yTECt2yy7o1h2HZ25cIH-32" target="yTECt2yy7o1h2HZ25cIH-35" edge="1">
          <mxGeometry relative="1" as="geometry" />
        </mxCell>
        <mxCell id="yTECt2yy7o1h2HZ25cIH-37" value="yes" style="edgeLabel;html=1;align=center;verticalAlign=middle;resizable=0;points=[];" parent="yTECt2yy7o1h2HZ25cIH-36" vertex="1" connectable="0">
          <mxGeometry x="-0.1561" y="-1" relative="1" as="geometry">
            <mxPoint as="offset" />
          </mxGeometry>
        </mxCell>
        <mxCell id="yTECt2yy7o1h2HZ25cIH-39" value="" style="edgeStyle=orthogonalEdgeStyle;rounded=0;orthogonalLoop=1;jettySize=auto;html=1;" parent="WIyWlLk6GJQsqaUBKTNV-1" source="yTECt2yy7o1h2HZ25cIH-32" target="yTECt2yy7o1h2HZ25cIH-38" edge="1">
          <mxGeometry relative="1" as="geometry" />
        </mxCell>
        <mxCell id="yTECt2yy7o1h2HZ25cIH-43" value="No" style="edgeLabel;html=1;align=center;verticalAlign=middle;resizable=0;points=[];" parent="yTECt2yy7o1h2HZ25cIH-39" vertex="1" connectable="0">
          <mxGeometry x="-0.1338" y="1" relative="1" as="geometry">
            <mxPoint as="offset" />
          </mxGeometry>
        </mxCell>
        <mxCell id="yTECt2yy7o1h2HZ25cIH-32" value="คำผิด = 1" style="rhombus;whiteSpace=wrap;html=1;strokeWidth=2;" parent="WIyWlLk6GJQsqaUBKTNV-1" vertex="1">
          <mxGeometry x="1192" y="940" width="80" height="80" as="geometry" />
        </mxCell>
        <mxCell id="yTECt2yy7o1h2HZ25cIH-75" style="edgeStyle=orthogonalEdgeStyle;rounded=0;orthogonalLoop=1;jettySize=auto;html=1;entryX=-0.223;entryY=0.198;entryDx=0;entryDy=0;entryPerimeter=0;" parent="WIyWlLk6GJQsqaUBKTNV-1" source="yTECt2yy7o1h2HZ25cIH-35" target="yTECt2yy7o1h2HZ25cIH-68" edge="1">
          <mxGeometry relative="1" as="geometry">
            <mxPoint x="1232" y="1290" as="targetPoint" />
            <Array as="points">
              <mxPoint x="1232" y="1290" />
            </Array>
          </mxGeometry>
        </mxCell>
        <mxCell id="yTECt2yy7o1h2HZ25cIH-35" value="&lt;div&gt;print(&quot;\n+---+&quot;)&lt;/div&gt;&lt;div&gt;&amp;nbsp; &amp;nbsp; print(&quot; O&amp;nbsp; |&quot;)&lt;/div&gt;&lt;div&gt;&amp;nbsp; &amp;nbsp; print(&quot;&amp;nbsp; &amp;nbsp; |&quot;)&lt;/div&gt;&lt;div&gt;&amp;nbsp; &amp;nbsp; print(&quot;&amp;nbsp; &amp;nbsp; |&quot;)&lt;/div&gt;&lt;div&gt;&amp;nbsp; &amp;nbsp; print(&quot;&amp;nbsp; &amp;nbsp;===&quot;)&lt;/div&gt;" style="whiteSpace=wrap;html=1;strokeWidth=2;" parent="WIyWlLk6GJQsqaUBKTNV-1" vertex="1">
          <mxGeometry x="1172" y="1070" width="120" height="90" as="geometry" />
        </mxCell>
        <mxCell id="yTECt2yy7o1h2HZ25cIH-41" value="" style="edgeStyle=orthogonalEdgeStyle;rounded=0;orthogonalLoop=1;jettySize=auto;html=1;" parent="WIyWlLk6GJQsqaUBKTNV-1" source="yTECt2yy7o1h2HZ25cIH-38" target="yTECt2yy7o1h2HZ25cIH-40" edge="1">
          <mxGeometry relative="1" as="geometry" />
        </mxCell>
        <mxCell id="yTECt2yy7o1h2HZ25cIH-42" value="yes" style="edgeLabel;html=1;align=center;verticalAlign=middle;resizable=0;points=[];" parent="yTECt2yy7o1h2HZ25cIH-41" vertex="1" connectable="0">
          <mxGeometry x="-0.2316" y="1" relative="1" as="geometry">
            <mxPoint as="offset" />
          </mxGeometry>
        </mxCell>
        <mxCell id="yTECt2yy7o1h2HZ25cIH-45" value="" style="edgeStyle=orthogonalEdgeStyle;rounded=0;orthogonalLoop=1;jettySize=auto;html=1;" parent="WIyWlLk6GJQsqaUBKTNV-1" source="yTECt2yy7o1h2HZ25cIH-38" target="yTECt2yy7o1h2HZ25cIH-44" edge="1">
          <mxGeometry relative="1" as="geometry" />
        </mxCell>
        <mxCell id="yTECt2yy7o1h2HZ25cIH-48" value="No" style="edgeLabel;html=1;align=center;verticalAlign=middle;resizable=0;points=[];" parent="yTECt2yy7o1h2HZ25cIH-45" vertex="1" connectable="0">
          <mxGeometry x="0.0088" y="2" relative="1" as="geometry">
            <mxPoint as="offset" />
          </mxGeometry>
        </mxCell>
        <mxCell id="yTECt2yy7o1h2HZ25cIH-38" value="คำผิด = 2" style="rhombus;whiteSpace=wrap;html=1;strokeWidth=2;" parent="WIyWlLk6GJQsqaUBKTNV-1" vertex="1">
          <mxGeometry x="1352" y="940" width="80" height="80" as="geometry" />
        </mxCell>
        <mxCell id="yTECt2yy7o1h2HZ25cIH-76" style="edgeStyle=orthogonalEdgeStyle;rounded=0;orthogonalLoop=1;jettySize=auto;html=1;entryX=0.172;entryY=0.149;entryDx=0;entryDy=0;entryPerimeter=0;" parent="WIyWlLk6GJQsqaUBKTNV-1" source="yTECt2yy7o1h2HZ25cIH-40" target="yTECt2yy7o1h2HZ25cIH-68" edge="1">
          <mxGeometry relative="1" as="geometry">
            <mxPoint x="1392" y="1290" as="targetPoint" />
            <Array as="points">
              <mxPoint x="1392" y="1290" />
            </Array>
          </mxGeometry>
        </mxCell>
        <mxCell id="yTECt2yy7o1h2HZ25cIH-40" value="&lt;div&gt;print(&quot;\n+---+&quot;)&lt;/div&gt;&lt;div&gt;&amp;nbsp; &amp;nbsp; print(&quot; O&amp;nbsp; |&quot;)&lt;/div&gt;&lt;div&gt;&amp;nbsp; &amp;nbsp; print(&quot; |&amp;nbsp; |&quot;)&lt;/div&gt;&lt;div&gt;&amp;nbsp; &amp;nbsp; print(&quot;&amp;nbsp; &amp;nbsp; |&quot;)&lt;/div&gt;&lt;div&gt;&amp;nbsp; &amp;nbsp; print(&quot;&amp;nbsp; &amp;nbsp;===&quot;)&lt;/div&gt;" style="whiteSpace=wrap;html=1;strokeWidth=2;" parent="WIyWlLk6GJQsqaUBKTNV-1" vertex="1">
          <mxGeometry x="1332" y="1070" width="120" height="90" as="geometry" />
        </mxCell>
        <mxCell id="yTECt2yy7o1h2HZ25cIH-47" value="" style="edgeStyle=orthogonalEdgeStyle;rounded=0;orthogonalLoop=1;jettySize=auto;html=1;" parent="WIyWlLk6GJQsqaUBKTNV-1" source="yTECt2yy7o1h2HZ25cIH-44" target="yTECt2yy7o1h2HZ25cIH-46" edge="1">
          <mxGeometry relative="1" as="geometry" />
        </mxCell>
        <mxCell id="yTECt2yy7o1h2HZ25cIH-49" value="yes" style="edgeLabel;html=1;align=center;verticalAlign=middle;resizable=0;points=[];" parent="yTECt2yy7o1h2HZ25cIH-47" vertex="1" connectable="0">
          <mxGeometry x="-0.1783" relative="1" as="geometry">
            <mxPoint as="offset" />
          </mxGeometry>
        </mxCell>
        <mxCell id="yTECt2yy7o1h2HZ25cIH-51" value="" style="edgeStyle=orthogonalEdgeStyle;rounded=0;orthogonalLoop=1;jettySize=auto;html=1;" parent="WIyWlLk6GJQsqaUBKTNV-1" source="yTECt2yy7o1h2HZ25cIH-44" target="yTECt2yy7o1h2HZ25cIH-50" edge="1">
          <mxGeometry relative="1" as="geometry" />
        </mxCell>
        <mxCell id="yTECt2yy7o1h2HZ25cIH-54" value="No" style="edgeLabel;html=1;align=center;verticalAlign=middle;resizable=0;points=[];" parent="yTECt2yy7o1h2HZ25cIH-51" vertex="1" connectable="0">
          <mxGeometry x="-0.0669" y="1" relative="1" as="geometry">
            <mxPoint as="offset" />
          </mxGeometry>
        </mxCell>
        <mxCell id="yTECt2yy7o1h2HZ25cIH-44" value="คำผิด = 3" style="rhombus;whiteSpace=wrap;html=1;strokeWidth=2;" parent="WIyWlLk6GJQsqaUBKTNV-1" vertex="1">
          <mxGeometry x="1512" y="940" width="80" height="80" as="geometry" />
        </mxCell>
        <mxCell id="yTECt2yy7o1h2HZ25cIH-46" value="&lt;div&gt;print(&quot;\n+---+&quot;)&lt;/div&gt;&lt;div&gt;&amp;nbsp; &amp;nbsp; print(&quot; O&amp;nbsp; |&quot;)&lt;/div&gt;&lt;div&gt;&amp;nbsp; &amp;nbsp; print(&quot; |\ |&quot;)&lt;/div&gt;&lt;div&gt;&amp;nbsp; &amp;nbsp; print(&quot;&amp;nbsp; &amp;nbsp; |&quot;)&lt;/div&gt;&lt;div&gt;&amp;nbsp; &amp;nbsp; print(&quot;&amp;nbsp; &amp;nbsp;===&quot;)&lt;/div&gt;" style="whiteSpace=wrap;html=1;strokeWidth=2;" parent="WIyWlLk6GJQsqaUBKTNV-1" vertex="1">
          <mxGeometry x="1492" y="1070" width="120" height="90" as="geometry" />
        </mxCell>
        <mxCell id="yTECt2yy7o1h2HZ25cIH-53" value="" style="edgeStyle=orthogonalEdgeStyle;rounded=0;orthogonalLoop=1;jettySize=auto;html=1;" parent="WIyWlLk6GJQsqaUBKTNV-1" source="yTECt2yy7o1h2HZ25cIH-50" target="yTECt2yy7o1h2HZ25cIH-52" edge="1">
          <mxGeometry relative="1" as="geometry" />
        </mxCell>
        <mxCell id="yTECt2yy7o1h2HZ25cIH-55" value="yes" style="edgeLabel;html=1;align=center;verticalAlign=middle;resizable=0;points=[];" parent="yTECt2yy7o1h2HZ25cIH-53" vertex="1" connectable="0">
          <mxGeometry x="-0.1783" relative="1" as="geometry">
            <mxPoint as="offset" />
          </mxGeometry>
        </mxCell>
        <mxCell id="yTECt2yy7o1h2HZ25cIH-57" value="" style="edgeStyle=orthogonalEdgeStyle;rounded=0;orthogonalLoop=1;jettySize=auto;html=1;" parent="WIyWlLk6GJQsqaUBKTNV-1" source="yTECt2yy7o1h2HZ25cIH-50" target="yTECt2yy7o1h2HZ25cIH-56" edge="1">
          <mxGeometry relative="1" as="geometry" />
        </mxCell>
        <mxCell id="yTECt2yy7o1h2HZ25cIH-64" value="No" style="edgeLabel;html=1;align=center;verticalAlign=middle;resizable=0;points=[];" parent="yTECt2yy7o1h2HZ25cIH-57" vertex="1" connectable="0">
          <mxGeometry x="-0.242" y="3" relative="1" as="geometry">
            <mxPoint as="offset" />
          </mxGeometry>
        </mxCell>
        <mxCell id="yTECt2yy7o1h2HZ25cIH-50" value="คำผิด = 4" style="rhombus;whiteSpace=wrap;html=1;strokeWidth=2;" parent="WIyWlLk6GJQsqaUBKTNV-1" vertex="1">
          <mxGeometry x="1672" y="940" width="80" height="80" as="geometry" />
        </mxCell>
        <mxCell id="yTECt2yy7o1h2HZ25cIH-79" style="edgeStyle=orthogonalEdgeStyle;rounded=0;orthogonalLoop=1;jettySize=auto;html=1;entryX=0.814;entryY=0.692;entryDx=0;entryDy=0;entryPerimeter=0;" parent="WIyWlLk6GJQsqaUBKTNV-1" source="yTECt2yy7o1h2HZ25cIH-52" target="yTECt2yy7o1h2HZ25cIH-68" edge="1">
          <mxGeometry relative="1" as="geometry">
            <mxPoint x="1712" y="1290" as="targetPoint" />
            <Array as="points">
              <mxPoint x="1712" y="1290" />
            </Array>
          </mxGeometry>
        </mxCell>
        <mxCell id="yTECt2yy7o1h2HZ25cIH-52" value="&lt;div&gt;print(&quot;\n+---+&quot;)&lt;/div&gt;&lt;div&gt;&amp;nbsp; &amp;nbsp; print(&quot; O&amp;nbsp; |&quot;)&lt;/div&gt;&lt;div&gt;&amp;nbsp; &amp;nbsp; print(&quot;/|\ |&quot;)&lt;/div&gt;&lt;div&gt;&amp;nbsp; &amp;nbsp; print(&quot;&amp;nbsp; &amp;nbsp; |&quot;)&lt;/div&gt;&lt;div&gt;&amp;nbsp; &amp;nbsp; print(&quot;&amp;nbsp; &amp;nbsp;===&quot;)&lt;/div&gt;" style="whiteSpace=wrap;html=1;strokeWidth=2;" parent="WIyWlLk6GJQsqaUBKTNV-1" vertex="1">
          <mxGeometry x="1652" y="1070" width="120" height="90" as="geometry" />
        </mxCell>
        <mxCell id="yTECt2yy7o1h2HZ25cIH-59" value="" style="edgeStyle=orthogonalEdgeStyle;rounded=0;orthogonalLoop=1;jettySize=auto;html=1;" parent="WIyWlLk6GJQsqaUBKTNV-1" source="yTECt2yy7o1h2HZ25cIH-56" target="yTECt2yy7o1h2HZ25cIH-58" edge="1">
          <mxGeometry relative="1" as="geometry" />
        </mxCell>
        <mxCell id="yTECt2yy7o1h2HZ25cIH-65" value="yes" style="edgeLabel;html=1;align=center;verticalAlign=middle;resizable=0;points=[];" parent="yTECt2yy7o1h2HZ25cIH-59" vertex="1" connectable="0">
          <mxGeometry x="-0.2753" y="1" relative="1" as="geometry">
            <mxPoint as="offset" />
          </mxGeometry>
        </mxCell>
        <mxCell id="yTECt2yy7o1h2HZ25cIH-61" value="" style="edgeStyle=orthogonalEdgeStyle;rounded=0;orthogonalLoop=1;jettySize=auto;html=1;" parent="WIyWlLk6GJQsqaUBKTNV-1" source="yTECt2yy7o1h2HZ25cIH-56" target="yTECt2yy7o1h2HZ25cIH-60" edge="1">
          <mxGeometry relative="1" as="geometry" />
        </mxCell>
        <mxCell id="yTECt2yy7o1h2HZ25cIH-66" value="No" style="edgeLabel;html=1;align=center;verticalAlign=middle;resizable=0;points=[];" parent="yTECt2yy7o1h2HZ25cIH-61" vertex="1" connectable="0">
          <mxGeometry x="0.0459" y="1" relative="1" as="geometry">
            <mxPoint as="offset" />
          </mxGeometry>
        </mxCell>
        <mxCell id="yTECt2yy7o1h2HZ25cIH-56" value="คำผิด = 5" style="rhombus;whiteSpace=wrap;html=1;strokeWidth=2;" parent="WIyWlLk6GJQsqaUBKTNV-1" vertex="1">
          <mxGeometry x="1832" y="940" width="80" height="80" as="geometry" />
        </mxCell>
        <mxCell id="yTECt2yy7o1h2HZ25cIH-80" style="edgeStyle=orthogonalEdgeStyle;rounded=0;orthogonalLoop=1;jettySize=auto;html=1;entryX=0.863;entryY=0.494;entryDx=0;entryDy=0;entryPerimeter=0;" parent="WIyWlLk6GJQsqaUBKTNV-1" source="yTECt2yy7o1h2HZ25cIH-58" target="yTECt2yy7o1h2HZ25cIH-68" edge="1">
          <mxGeometry relative="1" as="geometry">
            <mxPoint x="1872" y="1290" as="targetPoint" />
            <Array as="points">
              <mxPoint x="1872" y="1290" />
            </Array>
          </mxGeometry>
        </mxCell>
        <mxCell id="yTECt2yy7o1h2HZ25cIH-58" value="&lt;div&gt;print(&quot;\n+---+&quot;)&lt;/div&gt;&lt;div&gt;&amp;nbsp; &amp;nbsp; print(&quot; O&amp;nbsp; | &quot;)&lt;/div&gt;&lt;div&gt;&amp;nbsp; &amp;nbsp; print(&quot;/|\ | &quot;)&lt;/div&gt;&lt;div&gt;&amp;nbsp; &amp;nbsp; print(&quot;&amp;nbsp; \ | &quot;)&lt;/div&gt;&lt;div&gt;&amp;nbsp; &amp;nbsp; print(&quot;&amp;nbsp; &amp;nbsp;===&quot;)&lt;/div&gt;" style="whiteSpace=wrap;html=1;strokeWidth=2;" parent="WIyWlLk6GJQsqaUBKTNV-1" vertex="1">
          <mxGeometry x="1812" y="1070" width="120" height="90" as="geometry" />
        </mxCell>
        <mxCell id="yTECt2yy7o1h2HZ25cIH-63" value="" style="edgeStyle=orthogonalEdgeStyle;rounded=0;orthogonalLoop=1;jettySize=auto;html=1;" parent="WIyWlLk6GJQsqaUBKTNV-1" source="yTECt2yy7o1h2HZ25cIH-60" target="yTECt2yy7o1h2HZ25cIH-62" edge="1">
          <mxGeometry relative="1" as="geometry" />
        </mxCell>
        <mxCell id="yTECt2yy7o1h2HZ25cIH-67" value="yes" style="edgeLabel;html=1;align=center;verticalAlign=middle;resizable=0;points=[];" parent="yTECt2yy7o1h2HZ25cIH-63" vertex="1" connectable="0">
          <mxGeometry x="-0.3965" y="-2" relative="1" as="geometry">
            <mxPoint as="offset" />
          </mxGeometry>
        </mxCell>
        <mxCell id="yTECt2yy7o1h2HZ25cIH-60" value="คำผิด = 6" style="rhombus;whiteSpace=wrap;html=1;strokeWidth=2;" parent="WIyWlLk6GJQsqaUBKTNV-1" vertex="1">
          <mxGeometry x="1992" y="940" width="80" height="80" as="geometry" />
        </mxCell>
        <mxCell id="2oVvr5gUgx5wugrZln5X-16" style="edgeStyle=orthogonalEdgeStyle;rounded=0;orthogonalLoop=1;jettySize=auto;html=1;" edge="1" parent="WIyWlLk6GJQsqaUBKTNV-1" source="yTECt2yy7o1h2HZ25cIH-62">
          <mxGeometry relative="1" as="geometry">
            <mxPoint x="1560" y="1480" as="targetPoint" />
            <Array as="points">
              <mxPoint x="2032" y="1380" />
              <mxPoint x="1561" y="1380" />
              <mxPoint x="1561" y="1480" />
            </Array>
          </mxGeometry>
        </mxCell>
        <mxCell id="yTECt2yy7o1h2HZ25cIH-62" value="&lt;div&gt;print(&quot;\n+---+&quot;)&lt;/div&gt;&lt;div&gt;&amp;nbsp; &amp;nbsp; print(&quot; O&amp;nbsp; |&quot;)&lt;/div&gt;&lt;div&gt;&amp;nbsp; &amp;nbsp; print(&quot;/|\ |&quot;)&lt;/div&gt;&lt;div&gt;&amp;nbsp; &amp;nbsp; print(&quot;/ \ |&quot;)&lt;/div&gt;&lt;div&gt;&amp;nbsp; &amp;nbsp; print(&quot;&amp;nbsp; &amp;nbsp;===&quot;)&lt;/div&gt;" style="whiteSpace=wrap;html=1;strokeWidth=2;" parent="WIyWlLk6GJQsqaUBKTNV-1" vertex="1">
          <mxGeometry x="1972" y="1070" width="120" height="90" as="geometry" />
        </mxCell>
        <mxCell id="yTECt2yy7o1h2HZ25cIH-85" style="edgeStyle=orthogonalEdgeStyle;rounded=0;orthogonalLoop=1;jettySize=auto;html=1;entryX=0;entryY=0.5;entryDx=0;entryDy=0;exitX=0.806;exitY=0.378;exitDx=0;exitDy=0;exitPerimeter=0;" parent="WIyWlLk6GJQsqaUBKTNV-1" source="yTECt2yy7o1h2HZ25cIH-68" target="2oVvr5gUgx5wugrZln5X-2" edge="1">
          <mxGeometry relative="1" as="geometry">
            <mxPoint x="886" y="880.03" as="targetPoint" />
            <Array as="points">
              <mxPoint x="1550" y="1290" />
              <mxPoint x="1550" y="1360" />
              <mxPoint x="640" y="1360" />
              <mxPoint x="640" y="410" />
            </Array>
            <mxPoint x="1462" y="1310.03" as="sourcePoint" />
          </mxGeometry>
        </mxCell>
        <mxCell id="yTECt2yy7o1h2HZ25cIH-68" value="" style="shape=waypoint;sketch=0;size=6;pointerEvents=1;points=[];fillColor=default;resizable=0;rotatable=0;perimeter=centerPerimeter;snapToPoint=1;strokeWidth=2;" parent="WIyWlLk6GJQsqaUBKTNV-1" vertex="1">
          <mxGeometry x="1542" y="1280" width="20" height="20" as="geometry" />
        </mxCell>
        <mxCell id="yTECt2yy7o1h2HZ25cIH-78" style="edgeStyle=orthogonalEdgeStyle;rounded=0;orthogonalLoop=1;jettySize=auto;html=1;entryX=0.329;entryY=0.077;entryDx=0;entryDy=0;entryPerimeter=0;" parent="WIyWlLk6GJQsqaUBKTNV-1" source="yTECt2yy7o1h2HZ25cIH-46" target="yTECt2yy7o1h2HZ25cIH-68" edge="1">
          <mxGeometry relative="1" as="geometry" />
        </mxCell>
        <mxCell id="2oVvr5gUgx5wugrZln5X-7" value="" style="edgeStyle=orthogonalEdgeStyle;rounded=0;orthogonalLoop=1;jettySize=auto;html=1;" edge="1" parent="WIyWlLk6GJQsqaUBKTNV-1" source="2oVvr5gUgx5wugrZln5X-2" target="2oVvr5gUgx5wugrZln5X-6">
          <mxGeometry relative="1" as="geometry" />
        </mxCell>
        <mxCell id="2oVvr5gUgx5wugrZln5X-2" value="output :&amp;nbsp;print&lt;span style=&quot;font-family: monospace, Consolas, &amp;quot;Courier New&amp;quot;, monospace; font-size: 14px; color: rgb(220, 220, 220);&quot;&gt;(&lt;/span&gt;&lt;span style=&quot;font-family: monospace, Consolas, &amp;quot;Courier New&amp;quot;, monospace; font-size: 14px; color: rgb(206, 145, 120);&quot;&gt;&quot;\nตัวอักษรที่เคยเดาจนถึงตอนนี้: &quot;&lt;/span&gt;&lt;span class=&quot;custom-cursor-default-hover&quot; style=&quot;font-family: monospace, Consolas, &amp;quot;Courier New&amp;quot;, monospace; font-size: 14px; color: rgb(220, 220, 220);&quot;&gt;) &lt;/span&gt;&lt;span class=&quot;custom-cursor-default-hover&quot; style=&quot;font-family: monospace, Consolas, &amp;quot;Courier New&amp;quot;, monospace; font-size: 14px;&quot;&gt;ตัวอักษรทั้งหมดที่ผู้ใช้พิมพ์เข้ามา&lt;/span&gt;" style="shape=parallelogram;perimeter=parallelogramPerimeter;whiteSpace=wrap;html=1;fixedSize=1;strokeWidth=2;" vertex="1" parent="WIyWlLk6GJQsqaUBKTNV-1">
          <mxGeometry x="816" y="380" width="510" height="60" as="geometry" />
        </mxCell>
        <mxCell id="2oVvr5gUgx5wugrZln5X-11" value="" style="edgeStyle=orthogonalEdgeStyle;rounded=0;orthogonalLoop=1;jettySize=auto;html=1;" edge="1" parent="WIyWlLk6GJQsqaUBKTNV-1" source="2oVvr5gUgx5wugrZln5X-6" target="2oVvr5gUgx5wugrZln5X-10">
          <mxGeometry relative="1" as="geometry" />
        </mxCell>
        <mxCell id="2oVvr5gUgx5wugrZln5X-6" value="input : print(&lt;span class=&quot;custom-cursor-default-hover&quot; style=&quot;font-family: monospace, Consolas, &amp;quot;Courier New&amp;quot;, monospace; font-size: 14px; color: rgb(206, 145, 120);&quot;&gt;&quot;\nเดาตัวอักษร: &quot;&lt;/span&gt;&lt;span style=&quot;font-family: monospace, Consolas, &amp;quot;Courier New&amp;quot;, monospace; font-size: 14px; color: rgb(220, 220, 220);&quot;&gt;) &lt;/span&gt;&lt;span style=&quot;font-family: monospace, Consolas, &amp;quot;Courier New&amp;quot;, monospace; font-size: 14px;&quot;&gt;รับค่าตัวอักษรที่ผู้ใช้พิมพ์เข้ามา&lt;/span&gt;" style="shape=parallelogram;perimeter=parallelogramPerimeter;whiteSpace=wrap;html=1;fixedSize=1;strokeWidth=2;" vertex="1" parent="WIyWlLk6GJQsqaUBKTNV-1">
          <mxGeometry x="866" y="530" width="410" height="60" as="geometry" />
        </mxCell>
        <mxCell id="2oVvr5gUgx5wugrZln5X-12" style="edgeStyle=orthogonalEdgeStyle;rounded=0;orthogonalLoop=1;jettySize=auto;html=1;" edge="1" parent="WIyWlLk6GJQsqaUBKTNV-1" source="2oVvr5gUgx5wugrZln5X-10" target="yTECt2yy7o1h2HZ25cIH-9">
          <mxGeometry relative="1" as="geometry" />
        </mxCell>
        <mxCell id="2oVvr5gUgx5wugrZln5X-13" value="No" style="edgeLabel;html=1;align=center;verticalAlign=middle;resizable=0;points=[];" vertex="1" connectable="0" parent="2oVvr5gUgx5wugrZln5X-12">
          <mxGeometry x="-0.1041" y="-3" relative="1" as="geometry">
            <mxPoint as="offset" />
          </mxGeometry>
        </mxCell>
        <mxCell id="2oVvr5gUgx5wugrZln5X-15" style="edgeStyle=orthogonalEdgeStyle;rounded=0;orthogonalLoop=1;jettySize=auto;html=1;" edge="1" parent="WIyWlLk6GJQsqaUBKTNV-1" source="2oVvr5gUgx5wugrZln5X-10" target="2oVvr5gUgx5wugrZln5X-14">
          <mxGeometry relative="1" as="geometry">
            <Array as="points">
              <mxPoint x="2250" y="700" />
              <mxPoint x="2250" y="1480" />
            </Array>
          </mxGeometry>
        </mxCell>
        <mxCell id="2oVvr5gUgx5wugrZln5X-10" value="เดาตัวอักษรครบ 6 ครั้ง" style="rhombus;whiteSpace=wrap;html=1;strokeWidth=2;" vertex="1" parent="WIyWlLk6GJQsqaUBKTNV-1">
          <mxGeometry x="980" y="660" width="180" height="80" as="geometry" />
        </mxCell>
        <mxCell id="2oVvr5gUgx5wugrZln5X-18" value="" style="edgeStyle=orthogonalEdgeStyle;rounded=0;orthogonalLoop=1;jettySize=auto;html=1;" edge="1" parent="WIyWlLk6GJQsqaUBKTNV-1" source="2oVvr5gUgx5wugrZln5X-14" target="2oVvr5gUgx5wugrZln5X-17">
          <mxGeometry relative="1" as="geometry" />
        </mxCell>
        <mxCell id="2oVvr5gUgx5wugrZln5X-14" value="" style="shape=waypoint;sketch=0;fillStyle=solid;size=6;pointerEvents=1;points=[];fillColor=none;resizable=0;rotatable=0;perimeter=centerPerimeter;snapToPoint=1;" vertex="1" parent="WIyWlLk6GJQsqaUBKTNV-1">
          <mxGeometry x="1550" y="1470" width="20" height="20" as="geometry" />
        </mxCell>
        <mxCell id="2oVvr5gUgx5wugrZln5X-20" style="edgeStyle=orthogonalEdgeStyle;rounded=0;orthogonalLoop=1;jettySize=auto;html=1;" edge="1" parent="WIyWlLk6GJQsqaUBKTNV-1" source="2oVvr5gUgx5wugrZln5X-17" target="2oVvr5gUgx5wugrZln5X-21">
          <mxGeometry relative="1" as="geometry">
            <mxPoint x="1560" y="1780" as="targetPoint" />
          </mxGeometry>
        </mxCell>
        <mxCell id="2oVvr5gUgx5wugrZln5X-17" value="&lt;div style=&quot;color: rgb(212, 212, 212); background-color: rgb(30, 30, 30); font-family: monospace, Consolas, &amp;quot;Courier New&amp;quot;, monospace; font-size: 14px; line-height: 19px;&quot;&gt;print&lt;span style=&quot;color: #dcdcdc;&quot;&gt;(&lt;/span&gt;&lt;span class=&quot;custom-cursor-default-hover&quot; style=&quot;color: #ce9178;&quot;&gt;&quot;Game is Over! Thank you for playing :)&quot;&lt;/span&gt;&lt;span style=&quot;color: #dcdcdc;&quot;&gt;)&lt;/span&gt;&lt;/div&gt;" style="shape=parallelogram;perimeter=parallelogramPerimeter;whiteSpace=wrap;html=1;fixedSize=1;fillColor=none;sketch=0;fillStyle=solid;" vertex="1" parent="WIyWlLk6GJQsqaUBKTNV-1">
          <mxGeometry x="1360" y="1570" width="400" height="60" as="geometry" />
        </mxCell>
        <mxCell id="2oVvr5gUgx5wugrZln5X-21" value="Finish" style="strokeWidth=2;html=1;shape=mxgraph.flowchart.terminator;whiteSpace=wrap;" vertex="1" parent="WIyWlLk6GJQsqaUBKTNV-1">
          <mxGeometry x="1510" y="1750" width="100" height="60" as="geometry" />
        </mxCell>
      </root>
    </mxGraphModel>
  </diagram>
</mxfile>
